<svg width="512" height="512" viewBox="0 0 512 512" fill="none" xmlns="http://www.w3.org/2000/svg">
<g clip-path="url(#clip0_658_11)">
<path d="M362.768 328.993C363.832 327.704 364.887 326.434 364.922 325.136C365.096 318.657 365.002 312.171 365.002 305.194C372.932 305.194 380.669 305.194 388.857 305.194C388.857 296.973 388.857 289.228 388.857 280.942C397.022 280.942 404.744 280.942 412.834 280.942C412.834 264.804 412.834 249.207 412.834 233.227C420.925 233.227 428.653 233.227 436.773 233.227C436.773 304.913 436.773 376.767 436.773 448.891C316.975 448.891 197.245 448.891 77.1777 448.891C77.1777 377.105 77.1777 305.368 77.1777 233.236C84.7667 233.236 92.5103 233.236 100.787 233.236C100.787 248.726 100.787 264.46 100.787 280.723C109.028 280.723 116.763 280.723 124.935 280.723C124.935 288.993 124.935 296.743 124.935 304.802C132.987 304.802 140.598 304.802 148.702 304.802C148.702 312.828 148.702 320.563 148.702 328.786C156.909 328.786 164.645 328.786 172.866 328.786C172.866 336.996 172.866 344.731 172.866 352.949C181.079 352.949 188.814 352.949 196.853 352.949C196.853 361.045 196.853 368.657 196.853 376.759C204.881 376.759 212.617 376.759 220.839 376.759C220.839 384.966 220.839 392.703 220.839 400.922C229.052 400.922 236.787 400.922 244.826 400.922C244.826 409.017 244.826 416.629 244.826 424.619C252.855 424.619 260.585 424.619 268.813 424.619C268.813 417.066 268.813 409.329 268.813 401.108C277.024 401.108 284.758 401.108 292.976 401.108C292.976 392.896 292.976 385.16 292.976 377.122C301.072 377.122 308.684 377.122 316.786 377.122C316.786 369.093 316.786 361.357 316.786 353.135C324.995 353.135 332.73 353.135 340.949 353.135C340.949 344.923 340.949 337.188 340.949 328.999C348.385 328.999 355.337 328.999 362.768 328.993Z" fill="#009C9D"/>
<path d="M389.04 112.961C373.236 112.961 357.432 112.961 341.137 112.961C341.137 105.008 341.137 97.2741 341.137 89.2751C325.059 89.2751 309.469 89.2751 293.35 89.2751C293.35 96.9523 293.35 104.689 293.35 112.954C285.107 112.954 277.375 112.954 269.302 112.954C269.302 121.092 269.302 128.701 269.302 136.654C261.075 136.654 253.196 136.654 244.942 136.654C244.942 128.943 244.942 121.342 244.942 113.193C236.875 113.193 229.149 113.193 220.893 113.193C220.893 104.933 220.893 97.2068 220.893 89.2489C204.766 89.2489 189.182 89.2489 173.105 89.2489C173.105 97.0241 173.105 104.757 173.105 112.969C156.894 112.969 141.166 112.969 125.134 112.969C125.134 129.059 125.134 144.665 125.134 160.762C117.112 160.762 109.377 160.762 101.161 160.762C101.161 176.97 101.161 192.698 101.161 208.71C92.9407 208.71 85.2045 208.71 77.1523 208.71C77.1523 160.947 77.1523 113.231 77.1523 65.1777C172.998 65.1777 268.835 65.1777 365.094 65.1777C365.094 72.9341 365.094 80.5296 365.094 88.7167C373.211 88.7167 380.934 88.7167 389.202 88.7167C389.202 96.9186 389.202 104.532 389.098 112.578C388.994 113.01 389.04 112.961 389.04 112.961Z" fill="#009C9D"/>
<path d="M435.722 89.0646C428.091 89.0142 420.936 89.0142 413.298 89.0142C413.298 81.1727 413.298 73.4437 413.298 65.2362C405.11 65.2362 397.381 65.2362 389.33 65.2362C389.33 57.0334 389.33 49.3034 389.33 41.2051C404.955 41.2051 420.667 41.2051 436.971 41.2051C436.971 48.7422 436.971 56.4608 436.971 64.7528C445.253 64.7528 452.968 64.7528 460.913 64.7528C460.913 81.0594 460.913 96.7772 460.913 112.747C452.995 112.747 445.26 112.747 437.44 112.747C437.022 104.786 436.611 96.9507 435.722 89.0646Z" fill="#009C9D"/>
<path d="M388.973 113.035C396.761 113.06 404.57 113.06 412.981 113.06C412.981 120.749 412.981 128.475 412.981 136.607C421.162 136.607 428.761 136.607 436.758 136.607C436.758 160.762 436.758 184.5 436.758 208.619C429.268 208.619 421.52 208.619 413.274 208.619C413.274 193.143 413.274 177.412 413.274 161.189C405.064 161.189 397.329 161.189 389.006 161.189C389.006 145.102 389.006 129.502 389.023 113.431C389.04 112.96 388.994 113.009 388.973 113.035Z" fill="#009C9D"/>
<path d="M469.045 16.8399C474.497 16.8398 479.457 16.8398 484.787 16.8398C484.787 24.7826 484.787 32.4936 484.787 40.6034C477.185 40.6034 469.357 40.6034 461.262 40.6034C461.262 32.9072 461.262 25.1977 461.262 16.8399C463.714 16.8399 466.134 16.8399 469.045 16.8399Z" fill="#009C9D"/>
</g>
<defs>
<clipPath id="clip0_658_11">
<rect width="512" height="512" fill="white"/>
</clipPath>
</defs>
</svg>
