<svg width="1024" height="1024" viewBox="0 0 1024 1024" fill="none" xmlns="http://www.w3.org/2000/svg">
<g clip-path="url(#clip0_659_70)">
<path d="M725.533 657.986C727.661 655.408 729.773 652.868 729.842 650.273C730.19 637.315 730.001 624.342 730.001 610.389C745.862 610.389 761.337 610.389 777.711 610.389C777.711 593.947 777.711 578.456 777.711 561.885C794.043 561.885 809.487 561.885 825.666 561.885C825.666 529.609 825.666 498.414 825.666 466.453C841.849 466.453 857.305 466.453 873.544 466.453C873.544 609.826 873.544 753.534 873.544 897.782C633.947 897.782 394.488 897.782 154.354 897.782C154.354 754.209 154.354 610.736 154.354 466.471C169.531 466.471 185.019 466.471 201.573 466.471C201.573 497.451 201.573 528.921 201.573 561.446C218.053 561.446 233.525 561.446 249.869 561.446C249.869 577.987 249.869 593.487 249.869 609.604C265.972 609.604 281.194 609.604 297.402 609.604C297.402 625.657 297.402 641.127 297.402 657.573C313.815 657.573 329.288 657.573 345.731 657.573C345.731 673.991 345.731 689.462 345.731 705.899C362.155 705.899 377.625 705.899 393.704 705.899C393.704 722.089 393.704 737.313 393.704 753.518C409.759 753.518 425.232 753.518 441.676 753.518C441.676 769.933 441.676 785.406 441.676 801.845C458.103 801.845 473.572 801.845 489.649 801.845C489.649 818.033 489.649 833.257 489.649 849.239C505.708 849.239 521.167 849.239 537.623 849.239C537.623 834.131 537.623 818.657 537.623 802.217C554.045 802.217 569.515 802.217 585.95 802.217C585.95 785.792 585.95 770.319 585.95 754.244C602.142 754.244 617.365 754.244 633.569 754.244C633.569 738.187 633.569 722.714 633.569 706.271C649.988 706.271 665.458 706.271 681.896 706.271C681.896 689.846 681.896 674.376 681.896 657.999C696.767 657.999 710.671 657.999 725.533 657.986Z" fill="#009C9D"/>
<path d="M778.08 225.921C746.472 225.921 714.864 225.921 682.274 225.921C682.274 210.014 682.274 194.546 682.274 178.548C650.117 178.548 618.939 178.548 586.701 178.548C586.701 193.903 586.701 209.377 586.701 225.905C570.214 225.905 554.75 225.905 538.603 225.905C538.603 242.182 538.603 257.401 538.603 273.306C522.149 273.306 506.391 273.306 489.884 273.306C489.884 257.883 489.884 242.683 489.884 226.384C473.749 226.384 458.299 226.384 441.786 226.384C441.786 209.865 441.786 194.412 441.786 178.496C409.532 178.496 378.364 178.496 346.209 178.496C346.209 194.046 346.209 209.513 346.209 225.936C313.788 225.936 282.333 225.936 250.269 225.936C250.269 258.116 250.269 289.329 250.269 321.522C234.225 321.522 218.755 321.522 202.322 321.522C202.322 353.939 202.322 385.394 202.322 417.418C185.881 417.418 170.409 417.418 154.305 417.418C154.305 321.892 154.305 226.46 154.305 130.354C345.995 130.354 537.67 130.354 730.188 130.354C730.188 145.866 730.188 161.057 730.188 177.431C746.422 177.431 761.867 177.431 778.403 177.431C778.403 193.835 778.403 209.062 778.195 225.153C777.988 226.018 778.08 225.921 778.08 225.921Z" fill="#009C9D"/>
<path d="M871.447 178.129C856.183 178.028 841.874 178.028 826.599 178.028C826.599 162.345 826.599 146.887 826.599 130.472C810.222 130.472 794.764 130.472 778.662 130.472C778.662 114.067 778.662 98.6068 778.662 82.4102C809.911 82.4102 841.335 82.4102 873.943 82.4102C873.943 97.4844 873.943 112.922 873.943 129.506C890.507 129.506 905.939 129.506 921.828 129.506C921.828 162.119 921.828 193.554 921.828 225.495C905.992 225.495 890.522 225.495 874.881 225.495C874.046 209.573 873.223 193.901 871.447 178.129Z" fill="#009C9D"/>
<path d="M777.945 226.069C793.522 226.121 809.141 226.121 825.962 226.121C825.962 241.498 825.962 256.949 825.962 273.214C842.324 273.214 857.522 273.214 873.516 273.214C873.516 321.523 873.516 368.999 873.516 417.238C858.535 417.238 843.04 417.238 826.549 417.238C826.549 386.286 826.549 354.824 826.549 322.379C810.128 322.379 794.659 322.379 778.013 322.379C778.013 290.204 778.013 259.004 778.047 226.863C778.081 225.92 777.988 226.018 777.945 226.069Z" fill="#009C9D"/>
<path d="M938.091 33.6797C948.994 33.6797 958.913 33.6797 969.575 33.6797C969.575 49.5653 969.575 64.9872 969.575 81.2068C954.371 81.2068 938.714 81.2068 922.523 81.2068C922.523 65.8144 922.523 50.3954 922.523 33.6798C927.428 33.6798 932.268 33.6798 938.091 33.6797Z" fill="#009C9D"/>
</g>
<defs>
<clipPath id="clip0_659_70">
<rect width="1024" height="1024" fill="white"/>
</clipPath>
</defs>
</svg>
