<svg width="354" height="32" viewBox="0 0 354 32" fill="none" xmlns="http://www.w3.org/2000/svg">
<g clip-path="url(#clip0_660_139)">
<path d="M181.848 27.6167C180.781 27.8453 179.74 27.9482 178.628 28.0582C177.514 23.7711 176.441 19.6419 175.367 15.5126C175.273 15.524 175.179 15.5354 175.085 15.5467C175.085 19.6312 175.085 23.7156 175.085 27.8829C174.075 27.8829 173.212 27.8829 172.273 27.8829C172.273 21.4264 172.273 15.044 172.273 8.56283C173.567 8.56283 174.8 8.56283 176.138 8.56283C176.969 11.7656 177.795 14.9523 178.621 18.139C178.698 18.1336 178.775 18.1283 178.851 18.123C178.851 14.9998 178.851 11.8767 178.851 8.74958C179.876 8.29809 180.789 8.48123 181.874 8.55334C181.874 14.8983 181.874 21.1948 181.848 27.6167Z" fill="#009899"/>
<path d="M307.505 18.8235C307.505 15.3791 307.505 12.0692 307.505 8.63909C308.824 8.32764 310.093 8.50109 311.446 8.50296C311.915 10.2814 312.365 12.0024 312.823 13.7213C313.262 15.3727 313.551 17.07 314.147 18.6745C314.24 18.6592 314.333 18.6438 314.426 18.6285C314.426 15.2976 314.426 11.9667 314.426 8.55223C315.376 8.55223 316.204 8.55223 317.114 8.55223C317.114 15.005 317.114 21.3873 317.114 27.8694C316.095 27.8694 315.088 27.8694 313.919 27.8694C312.852 23.7776 311.767 19.6146 310.682 15.4516C310.586 15.4608 310.491 15.4701 310.396 15.4794C310.396 19.5927 310.396 23.7061 310.396 27.8921C309.396 27.8921 308.562 27.8921 307.577 27.8921C307.425 26.4011 307.527 24.892 307.509 23.39C307.491 21.9129 307.505 20.4353 307.505 18.8235Z" fill="#00999A"/>
<path d="M46.0034 27.6157C44.9967 28.2116 43.9896 27.895 42.9023 27.9125C42.9023 21.4606 42.9023 15.0799 42.9023 8.60575C43.2438 8.55992 43.5869 8.47829 43.9308 8.47412C45.2292 8.45826 46.5282 8.44635 47.8263 8.47182C50.6156 8.52657 51.9245 9.85082 51.9633 12.6231C51.9677 12.9363 51.9539 13.2501 51.966 13.563C52.0296 15.2079 51.9679 16.8097 50.3319 17.9246C51.8041 18.9994 51.9837 20.4196 51.9765 21.9477C51.9673 23.9084 52.0467 25.8695 52.0893 27.8977C51.2497 27.8977 50.2376 27.8977 49.0913 27.8977C49.0297 27.4051 48.9287 26.9339 48.9197 26.461C48.8956 25.2081 48.9149 23.9545 48.9088 22.7012C48.907 22.3443 48.9087 21.9827 48.8547 21.6315C48.6408 20.2397 48.3132 19.3752 46.0292 19.7659C46.0292 22.3188 46.0292 24.9044 46.0034 27.6157ZM48.5321 11.9753C47.8769 11.1488 47.0392 11.2046 46.1482 11.4005C46.1482 13.1881 46.1482 14.8904 46.1482 16.6128C46.4721 16.6379 46.6913 16.6699 46.9105 16.6694C48.293 16.6662 48.7215 16.2506 48.7293 14.8344C48.7341 13.9495 48.675 13.0643 48.5321 11.9753Z" fill="#009A9B"/>
<path d="M285.721 21.0423C285.721 23.361 285.721 25.5527 285.721 27.856C284.657 27.856 283.662 27.856 282.576 27.856C282.576 21.4598 282.576 15.0788 282.576 8.62972C282.876 8.57658 283.174 8.48112 283.474 8.47754C284.862 8.461 286.251 8.43687 287.638 8.47695C290.276 8.55311 291.578 9.87988 291.637 12.4929C291.644 12.8061 291.639 13.1195 291.639 13.4329C291.639 16.0705 291.639 16.0705 290.147 18.0305C291.483 19.0025 291.658 20.4245 291.651 21.952C291.642 23.9128 291.722 25.874 291.764 27.9005C290.924 27.9005 289.911 27.9005 288.765 27.9005C288.703 27.403 288.603 26.9317 288.594 26.4586C288.57 25.2056 288.59 23.952 288.583 22.6986C288.582 22.3417 288.579 21.9811 288.529 21.6288C288.308 20.0567 287.74 19.382 285.788 19.7572C285.767 20.1281 285.744 20.5217 285.721 21.0423ZM286.821 11.2945C286.484 11.3289 286.146 11.3633 285.797 11.3988C285.797 13.185 285.797 14.868 285.797 16.5878C286.088 16.6217 286.304 16.6659 286.521 16.6689C287.918 16.6883 288.379 16.248 288.408 14.8602C288.421 14.2783 288.42 13.6957 288.408 13.1137C288.385 11.8987 288.291 11.7795 286.821 11.2945Z" fill="#009A9B"/>
<path d="M298.051 28.0411C296.185 27.7043 294.904 25.9564 294.879 24.0938C294.826 20.1536 294.767 16.209 294.895 12.2724C294.986 9.51878 296.766 8.36998 298.858 8.19666C302.798 7.87038 304.265 10.1896 304.21 13.2411C304.151 16.5093 304.197 19.7793 304.196 23.0485C304.196 23.3619 304.21 23.6764 304.19 23.9887C304.026 26.5297 302.437 28.1112 299.887 28.2251C299.314 28.2507 298.734 28.1279 298.051 28.0411ZM298.008 17.8829C298.008 19.54 298.004 21.1971 298.012 22.8541C298.014 23.2555 298.013 23.6655 298.091 24.0561C298.26 24.902 298.778 25.2981 299.591 25.2716C300.34 25.2473 300.804 24.86 300.957 24.0631C301.032 23.6706 301.044 23.2619 301.045 22.8604C301.052 19.7254 301.054 16.5904 301.043 13.4554C301.041 13.012 301.014 12.5529 300.896 12.1293C300.715 11.4744 300.105 11.0392 299.515 11.0414C298.891 11.0436 298.349 11.4399 298.154 12.1249C298.047 12.5047 298.019 12.9166 298.015 13.3147C297.999 14.7477 298.008 16.1809 298.008 17.8829Z" fill="#009798"/>
<path d="M348.581 20.9713C348.581 21.9102 348.589 22.7155 348.58 23.5206C348.543 26.6835 346.548 28.4974 343.405 28.2315C340.824 28.0132 339.264 26.3451 339.251 23.7239C339.231 20.0558 339.225 16.3875 339.255 12.7196C339.269 10.9695 339.778 9.3679 341.53 8.64764C343.385 7.88477 345.325 7.83481 347.017 9.09705C348.152 9.94458 348.572 11.2464 348.577 12.6513C348.589 15.38 348.581 18.1088 348.581 20.9713ZM343.48 25.2465C344.928 25.2314 345.31 24.888 345.42 23.4989C345.424 23.4544 345.428 23.4098 345.428 23.3652C345.429 19.9259 345.437 16.4867 345.42 13.0475C345.418 12.6572 345.329 12.2415 345.173 11.884C344.945 11.3594 344.487 11.0358 343.904 11.0521C343.285 11.0695 342.778 11.345 342.583 11.9886C342.493 12.2842 342.404 12.5955 342.403 12.8999C342.392 16.4285 342.394 19.9571 342.4 23.4857C342.401 24.1921 342.607 24.8075 343.48 25.2465Z" fill="#009798"/>
<path d="M121.091 20.7014C121.091 18.1966 121.041 15.824 121.115 13.4552C121.145 12.4929 121.368 11.5174 121.639 10.5874C121.914 9.6444 122.624 9.00043 123.53 8.61864C124.95 8.02013 126.439 7.97535 127.858 8.48024C129.603 9.10124 130.378 10.535 130.494 12.3243C130.551 13.2154 130.511 14.1131 130.511 15.0078C130.512 17.7368 130.513 20.4658 130.51 23.1949C130.509 23.5968 130.517 24.0023 130.469 24.4002C130.232 26.3962 129.095 27.6455 127.13 28.0966C124.876 28.6142 122.582 27.8392 121.772 26.0894C121.355 25.1867 121.247 24.1211 121.111 23.114C121.011 22.3669 121.091 21.5956 121.091 20.7014ZM127.283 20.0331C127.283 17.749 127.285 15.4649 127.28 13.1808C127.279 12.8239 127.29 12.4572 127.216 12.1125C127.076 11.469 126.607 11.0945 125.98 11.057C125.379 11.021 124.787 11.2275 124.566 11.8606C124.408 12.3138 124.333 12.8177 124.33 13.2996C124.31 16.5689 124.32 19.8383 124.32 23.1077C124.32 23.3316 124.305 23.558 124.332 23.779C124.45 24.7426 125.047 25.3062 125.897 25.2732C126.811 25.2377 127.247 24.7567 127.275 23.6604C127.303 22.5415 127.282 21.4213 127.283 20.0331Z" fill="#00999A"/>
<path d="M210.895 27.7676C209.686 28.2392 208.556 28.3442 207.373 28.1161C205.596 27.7734 204.487 26.744 204.088 24.9984C203.931 24.308 203.868 23.583 203.862 22.8729C203.839 19.7822 203.836 16.6912 203.864 13.6005C203.87 12.8484 203.946 12.0797 204.12 11.3496C204.57 9.46329 205.78 8.43447 207.674 8.21687C207.719 8.21178 207.764 8.21174 207.808 8.20761C211.754 7.84397 213.309 10.018 213.279 13.2588C213.248 16.6629 213.298 20.0678 213.262 23.4718C213.242 25.2554 212.714 26.8237 210.895 27.7676ZM207.107 12.4011C207.098 16.0196 207.087 19.638 207.087 23.2565C207.087 23.61 207.099 23.9848 207.212 24.3128C207.525 25.2185 208.672 25.6079 209.408 25.0744C209.926 24.6998 210.045 24.1387 210.044 23.5313C210.04 19.9572 210.051 16.3831 210.037 12.8091C210.034 11.8275 209.617 11.2432 208.889 11.0726C208.221 10.9162 207.666 11.2664 207.107 12.4011Z" fill="#00999A"/>
<path d="M117.862 15.5526C117.415 16.9683 117.415 16.9683 116.378 17.9361C117.933 19.0742 118.047 20.7486 118.049 22.4721C118.052 24.2503 118.085 26.0284 118.105 27.887C117.202 27.887 116.191 27.887 115.027 27.887C114.955 27.1233 114.846 26.3794 114.825 25.6331C114.791 24.4256 114.822 23.2164 114.814 22.008C114.801 19.9201 114.175 19.4112 111.964 19.7991C111.964 22.4438 111.964 25.1134 111.964 27.8741C110.928 27.8741 110.015 27.8741 108.998 27.8741C108.998 21.455 108.998 15.0424 108.998 8.59737C111.049 8.59737 113.061 8.47437 115.049 8.63673C116.61 8.76416 117.648 9.89231 117.822 11.4637C117.967 12.7755 117.863 14.1147 117.862 15.5526ZM111.943 14.8881C111.943 15.4538 111.943 16.0196 111.943 16.6725C112.527 16.6725 112.925 16.666 113.323 16.674C113.934 16.6862 114.393 16.3898 114.579 15.849C114.994 14.6448 114.995 13.3889 114.588 12.1983C114.461 11.8299 113.92 11.5032 113.5 11.3637C113.072 11.2212 112.559 11.3322 111.943 11.3322C111.943 12.5045 111.943 13.5669 111.943 14.8881Z" fill="#009B9C"/>
<path d="M71.0708 11.0641C69.9928 11.3248 69.7464 12.1229 69.737 12.9345C69.6964 16.4274 69.7139 19.921 69.7315 23.4143C69.7332 23.7612 69.8365 24.1242 69.9664 24.4504C70.2101 25.0625 70.7016 25.3035 71.357 25.2781C72.0225 25.2523 72.476 24.95 72.6409 24.3102C73.0147 22.8605 72.8201 21.3983 72.8221 19.9174C72.2609 19.8139 71.8294 19.7343 71.3209 19.6405C71.3209 18.7461 71.3209 17.8724 71.3209 16.9071C72.8032 16.9071 74.2497 16.9071 75.7844 16.9071C75.7844 19.4198 75.9534 21.8461 75.7412 24.2385C75.4819 27.1623 73.2452 28.6628 70.3082 28.1901C67.9904 27.817 66.6856 26.3303 66.6706 23.9444C66.6464 20.0929 66.6463 16.241 66.6702 12.3895C66.6862 9.81418 68.2952 8.24288 70.883 8.20007C70.9725 8.1986 71.0622 8.19948 71.1518 8.19948C74.0407 8.19997 75.5522 9.56756 75.7968 12.4493C75.8567 13.1552 75.8057 13.8705 75.8057 14.6856C74.8109 14.6856 73.9046 14.6856 72.8419 14.6856C72.8419 14.0892 72.8829 13.5153 72.8335 12.9494C72.7258 11.7166 72.4043 11.3722 71.0708 11.0641Z" fill="#009A9B"/>
<path d="M94.3721 12.7008C94.3512 13.1638 94.3285 13.5101 94.302 13.9146C93.2925 13.9146 92.3687 13.9146 91.2951 13.9146C91.2719 13.4316 91.2612 12.9579 91.2237 12.4863C91.1593 11.6758 90.6166 11.0849 89.9178 11.0414C89.1773 10.9953 88.5483 11.6123 88.4674 12.4969C88.3781 13.4733 88.5905 14.3906 89.2663 15.1131C90.2712 16.1874 91.3198 17.2221 92.373 18.2499C94.1604 19.9943 94.6468 22.1419 94.2988 24.52C93.8695 27.453 91.5309 28.5353 88.8702 28.1768C86.5851 27.8688 85.3289 26.4036 85.2313 24.0763C85.2054 23.4585 85.2274 22.8388 85.2274 22.1353C86.2125 22.1353 87.0879 22.1353 88.1236 22.1353C88.1463 22.587 88.1608 23.0598 88.1955 23.531C88.2851 24.7484 88.7937 25.3037 89.7751 25.2708C90.7096 25.2394 91.3165 24.57 91.1858 23.4012C91.095 22.5891 90.8128 21.7327 90.3821 21.0419C89.9203 20.3013 89.168 19.7461 88.5719 19.0836C87.7105 18.1262 86.7553 17.2236 86.057 16.1559C84.9575 14.4748 85.036 12.591 85.5932 10.722C85.6803 10.4302 85.8788 10.1685 86.042 9.90282C87.0289 8.29662 88.9619 7.92189 91.2173 8.31688C92.8555 8.60377 93.8665 9.76797 94.1873 11.533C94.2508 11.8829 94.3095 12.2337 94.3721 12.7008Z" fill="#00999A"/>
<path d="M191.837 22.5506C191.837 19.556 191.837 16.6909 191.837 13.8257C191.837 13.5571 191.831 13.2884 191.838 13.02C191.951 8.77478 194.573 7.66232 198.046 8.37621C199.604 8.69649 200.525 9.82757 200.795 11.3443C201.003 12.5079 200.96 13.7163 201.033 14.9859C199.924 14.9859 199.009 14.9859 197.926 14.9859C197.926 14.0929 197.968 13.2529 197.913 12.4193C197.862 11.6442 197.207 11.0493 196.52 11.0396C195.832 11.0299 195.201 11.6185 195.084 12.3829C195.07 12.4708 195.072 12.5616 195.072 12.651C195.072 16.322 195.06 19.9929 195.081 23.6638C195.085 24.5493 195.472 25.0891 196.066 25.2472C197.055 25.5107 197.815 24.966 197.918 23.8741C197.969 23.3414 197.933 22.8005 197.934 22.2633C197.936 21.7756 197.935 21.2879 197.935 20.6844C198.941 20.6844 199.851 20.6844 200.918 20.6844C200.992 22.3542 201.213 24.0329 200.601 25.6588C200.113 26.9551 199.176 27.8122 197.78 28.0753C197.299 28.1659 196.804 28.2382 196.317 28.2265C193.721 28.1642 192.128 26.8204 191.846 23.8883C191.807 23.489 191.838 23.083 191.837 22.5506Z" fill="#009A9B"/>
<path d="M333.33 13.9537C333.291 13.2984 333.307 12.753 333.202 12.2321C333.048 11.4689 332.481 11.0318 331.798 11.0412C331.21 11.0493 330.628 11.5048 330.455 12.174C330.368 12.5127 330.379 12.882 330.379 13.2376C330.374 16.5057 330.375 19.7738 330.377 23.042C330.377 23.3548 330.359 23.6742 330.414 23.9791C330.579 24.9046 331.01 25.2826 331.83 25.2729C332.637 25.2634 333.108 24.8551 333.249 23.9727C333.32 23.5337 333.313 23.0815 333.327 22.6349C333.343 22.0981 333.341 21.5608 333.356 21.024C333.359 20.9408 333.414 20.8591 333.483 20.6727C334.318 20.6727 335.192 20.6727 336.217 20.6727C336.298 22.3989 336.52 24.1141 335.888 25.7914C335.765 26.119 335.577 26.4424 335.349 26.7075C333.943 28.342 332.114 28.4925 330.192 28.0229C328.486 27.606 327.586 26.3854 327.33 24.6836C327.231 24.0255 327.154 23.3571 327.15 22.6929C327.131 19.6487 327.127 16.6043 327.153 13.5602C327.159 12.8062 327.237 12.0408 327.388 11.3024C327.735 9.60653 328.846 8.54754 330.574 8.29278C331.318 8.18298 332.098 8.16647 332.845 8.2504C334.565 8.44345 335.907 9.69007 336.155 11.4645C336.312 12.5922 336.184 13.7597 336.184 14.9849C335.277 14.9849 334.402 14.9849 333.452 14.9849C333.41 14.6704 333.37 14.3725 333.33 13.9537Z" fill="#00999A"/>
<path d="M142.342 14.0191C142.426 13.0041 142.419 12.0984 142.611 11.2372C142.992 9.53584 144.096 8.50564 145.841 8.27264C146.545 8.17866 147.278 8.15933 147.983 8.24034C149.855 8.45578 151.155 9.78673 151.403 11.8174C151.525 12.8236 151.424 13.857 151.424 14.9689C150.469 14.9689 149.554 14.9689 148.44 14.9689C148.44 14.402 148.449 13.838 148.437 13.2745C148.428 12.8736 148.437 12.4641 148.358 12.0749C148.223 11.4168 147.727 11.1099 147.102 11.0555C146.512 11.0042 146.053 11.2935 145.801 11.8227C145.672 12.0955 145.588 12.4188 145.586 12.7198C145.573 16.3918 145.578 20.064 145.581 23.7362C145.581 23.8696 145.588 24.0069 145.619 24.1359C145.818 24.9636 146.348 25.3458 147.18 25.2703C147.908 25.2043 148.373 24.7446 148.426 23.9535C148.468 23.3293 148.438 22.7002 148.44 22.0732C148.441 21.6316 148.44 21.1899 148.44 20.6585C149.479 20.6585 150.398 20.6585 151.363 20.6585C151.363 22.1296 151.536 23.5709 151.32 24.9517C151.049 26.6882 149.906 27.8555 148.099 28.0869C147.188 28.2036 146.21 28.1894 145.319 27.9868C143.442 27.5604 142.375 25.8629 142.35 23.4184C142.319 20.3286 142.342 17.2384 142.342 14.0191Z" fill="#009A9B"/>
<path d="M260.187 27.0924C259.084 25.9996 258.851 24.6715 258.833 23.3235C258.788 19.9198 258.803 16.5149 258.831 13.1108C258.836 12.4481 258.944 11.7704 259.112 11.1278C259.524 9.55519 260.526 8.54049 262.168 8.31366C262.958 8.20448 263.782 8.16618 264.571 8.26065C266.343 8.47264 267.584 9.79357 267.88 11.6483C267.93 11.9569 267.958 12.2715 267.963 12.5839C267.975 13.341 267.967 14.0984 267.967 14.9584C266.977 14.9584 266.071 14.9584 265.083 14.9584C265.055 14.5752 265.024 14.2289 265.006 13.8819C264.986 13.4799 265.007 13.0735 264.957 12.6757C264.816 11.545 264.251 10.9744 263.386 11.0481C262.617 11.1137 262.067 11.7721 262.061 12.7893C262.04 16.3727 262.04 19.9563 262.062 23.5397C262.068 24.5363 262.444 25.0935 263.065 25.2498C264.041 25.4953 264.834 24.969 264.928 23.8759C265.015 22.8579 264.947 21.8264 264.947 20.6852C266.008 20.6852 266.918 20.6852 267.878 20.6852C267.878 22.0696 268.013 23.4191 267.847 24.7304C267.595 26.7135 266.402 27.8065 264.417 28.1373C262.904 28.3896 261.471 28.2261 260.187 27.0924Z" fill="#00999A"/>
<path d="M61.2639 16.2671C61.7848 16.2919 62.1803 16.3165 62.646 16.3455C62.646 17.2987 62.646 18.1757 62.646 19.2229C61.3212 19.2229 60.0453 19.2229 58.6852 19.2229C58.6852 21.2034 58.6852 23.0154 58.6852 24.9736C60.3433 24.9736 61.9766 24.9736 63.7022 24.9736C63.7022 26.0216 63.7022 26.9259 63.7022 27.8914C60.9281 27.8914 58.2218 27.8914 55.4414 27.8914C55.4414 21.4338 55.4414 15.0512 55.4414 8.56836C58.189 8.56836 60.8963 8.56836 63.701 8.56836C63.701 9.42882 63.701 10.2583 63.701 11.231C62.095 11.231 60.4589 11.231 58.7114 11.231C58.7114 12.944 58.7114 14.5168 58.7114 16.2669C59.5525 16.2669 60.3455 16.2669 61.2639 16.2671Z" fill="#009B9C"/>
<path d="M225.373 15.5968C225.373 13.1858 225.373 10.9093 225.373 8.55273C228.182 8.55273 230.85 8.55273 233.616 8.55273C233.616 9.44109 233.616 10.2656 233.616 11.2594C231.942 11.2594 230.267 11.2594 228.509 11.2594C228.509 12.9676 228.509 14.5086 228.509 16.1908C229.882 16.2413 231.199 16.2898 232.572 16.3403C232.572 17.2976 232.572 18.1358 232.572 19.1558C231.242 19.2002 229.927 19.2439 228.52 19.2908C228.52 21.1934 228.52 23.0054 228.52 24.988C230.213 24.988 231.888 24.988 233.635 24.988C233.635 26.0293 233.635 26.9023 233.635 27.8718C230.932 27.8718 228.266 27.8718 225.583 27.8718C225.567 27.8572 225.53 27.8304 225.501 27.7966C225.473 27.7645 225.435 27.7252 225.435 27.6888C225.412 23.703 225.393 19.7171 225.373 15.5968Z" fill="#009B9C"/>
<path d="M247.701 18.2857C247.701 14.9787 247.701 11.8063 247.701 8.55273C250.508 8.55273 253.177 8.55273 255.944 8.55273C255.944 9.44027 255.944 10.2647 255.944 11.2586C254.271 11.2586 252.596 11.2586 250.837 11.2586C250.837 12.9666 250.837 14.5077 250.837 16.1911C252.209 16.2412 253.525 16.2894 254.9 16.3396C254.9 17.2967 254.9 18.1348 254.9 19.1561C253.57 19.2001 252.255 19.2435 250.848 19.2901C250.848 21.1927 250.848 23.0045 250.848 24.9871C252.541 24.9871 254.215 24.9871 255.962 24.9871C255.962 26.0284 255.962 26.9015 255.962 27.8712C253.26 27.8712 250.595 27.8712 247.73 27.8712C247.72 26.3046 247.707 24.7145 247.702 23.1244C247.697 21.5563 247.701 19.9882 247.701 18.2857Z" fill="#009B9C"/>
<path d="M99.7488 14.2616C99.7488 13.2433 99.7488 12.3577 99.7488 11.3085C98.668 11.3085 97.7108 11.3085 96.6855 11.3085C96.6855 10.3142 96.6855 9.48662 96.6855 8.56055C99.8491 8.56055 102.956 8.56055 106.139 8.56055C106.139 9.47218 106.139 10.2979 106.139 11.2574C105.122 11.2574 104.158 11.2574 103.016 11.2574C102.937 16.8562 103.034 22.3294 102.961 27.883C101.888 27.883 100.926 27.883 99.7653 27.883C99.7316 25.6259 99.7534 23.3644 99.7496 21.1039C99.7458 18.8674 99.7488 16.6309 99.7488 14.2616Z" fill="#009798"/>
<path d="M239.157 27.9707C238.321 27.9707 237.616 27.9707 236.836 27.9707C236.836 21.4387 236.836 15.0575 236.836 8.56836C237.824 8.56836 238.782 8.56836 239.878 8.56836C239.878 14.0298 239.878 19.4239 239.878 24.9481C241.605 24.9481 243.198 24.9481 244.904 24.9481C244.904 25.9832 244.904 26.8884 244.904 27.9707C243.019 27.9707 241.154 27.9707 239.157 27.9707Z" fill="#009697"/>
<path d="M276.571 27.1019C276.599 27.7172 276.422 27.9852 275.882 27.967C275.171 27.9432 274.458 27.9612 273.58 27.9612C273.471 26.5311 273.54 25.158 273.528 23.7903C273.515 22.4016 273.525 21.0125 273.525 19.6237C273.525 18.2796 273.525 16.9355 273.525 15.5914C273.525 14.213 273.525 12.8346 273.525 11.3261C272.424 11.3261 271.458 11.3261 270.396 11.3261C270.396 10.3721 270.396 9.5481 270.396 8.7223C271.338 8.41922 277.657 8.32613 279.692 8.60058C279.692 9.41203 279.692 10.2412 279.692 11.2218C278.74 11.2641 277.739 11.3085 276.572 11.3602C276.572 16.6074 276.572 21.7902 276.571 27.1019Z" fill="#009C9D"/>
<path d="M157.677 13.9831C157.677 17.6852 157.677 21.2528 157.677 24.9525C159.384 24.9525 160.972 24.9525 162.673 24.9525C162.673 25.9864 162.673 26.8899 162.673 27.881C160.054 27.881 157.44 27.881 154.727 27.881C154.727 21.4554 154.727 15.0516 154.727 8.56445C155.703 8.56445 156.61 8.56445 157.677 8.56445C157.677 10.3845 157.677 12.1166 157.677 13.9831Z" fill="#009C9D"/>
<path d="M79.4205 27.9392C79.2093 27.6352 79.0508 27.3515 79.0502 27.0674C79.0368 21.1199 79.0408 15.1723 79.0451 9.22467C79.0452 9.04955 79.0858 8.87439 79.1218 8.58398C80.1276 8.58398 81.1191 8.58398 82.1929 8.58398C82.1929 15.0184 82.1929 21.3903 82.1929 27.9592C81.2965 27.9592 80.4216 27.9592 79.4205 27.9392Z" fill="#009899"/>
<path d="M323.909 27.3613C323.772 27.6404 323.646 27.9158 323.508 27.922C322.626 27.9616 321.74 27.9422 320.771 27.9422C320.771 21.4628 320.771 15.0875 320.771 8.58789C321.769 8.58789 322.766 8.58789 323.916 8.58789C323.916 14.8265 323.916 21.0298 323.909 27.3613Z" fill="#009899"/>
<path d="M188.531 23.3943C188.531 24.9523 188.531 26.376 188.531 27.8845C187.439 27.8845 186.485 27.8845 185.453 27.8845C185.453 21.4313 185.453 15.0469 185.453 8.56055C186.464 8.56055 187.422 8.56055 188.531 8.56055C188.531 13.5183 188.531 18.3891 188.531 23.3943Z" fill="#009596"/>
<path d="M166.578 8.46094C167.307 8.49189 167.919 8.52373 168.549 8.55653C168.549 15.0589 168.549 21.4346 168.549 27.891C167.522 27.891 166.57 27.891 165.543 27.891C165.543 21.4335 165.543 15.0578 165.543 8.61926C165.86 8.56493 166.16 8.51339 166.578 8.46094Z" fill="#009596"/>
<path d="M298.651 5.68527C299.939 3.63719 299.304 3.90422 301.825 3.88167C302.214 3.87822 302.603 3.92661 303.292 3.96987C302.205 5.12875 301.391 6.23661 300.336 7.02239C299.797 7.42421 298.827 7.24909 297.73 7.37028C298.115 6.65645 298.354 6.21078 298.651 5.68527Z" fill="#009090"/>
<path d="M170.166 3.89561C170.326 4.06542 170.492 4.31604 170.441 4.37309C169.668 5.23989 168.899 6.11508 168.062 6.91865C167.313 7.63773 166.384 7.11666 165.203 7.35159C165.96 6.12224 166.502 5.16403 167.134 4.26926C167.297 4.03794 167.736 3.92525 168.06 3.89883C168.727 3.84444 169.401 3.88498 170.166 3.89561Z" fill="#009090"/>
<path d="M11.4513 21.9333C11.8969 21.9335 12.3156 21.9335 12.7616 21.9336C12.7615 22.3169 12.7614 22.684 12.7613 23.0791C13.2763 23.0957 13.767 23.0791 14.2959 23.0906C14.2958 23.4751 14.2957 23.8539 14.2956 24.2579C14.8158 24.258 15.2969 24.2581 15.8101 24.2581C15.81 24.6498 15.81 25.0163 15.8099 25.3979C16.3233 25.3979 16.8041 25.398 17.321 25.3981C17.3211 25.0292 17.3212 24.6638 17.3212 24.2706C17.8352 24.2706 18.3153 24.2707 18.8337 24.2708C18.8498 23.8709 18.8338 23.4973 18.8447 23.1026C19.1006 23.0731 19.3498 23.0907 19.5968 23.0878C19.8475 23.0849 20.0983 23.0872 20.3866 23.0873C20.3867 22.7 20.3868 22.3278 20.3868 21.9352C20.9049 21.9352 21.386 21.9353 21.8987 21.9353C21.8988 21.5415 21.8988 21.1681 21.8989 20.7667C22.4191 20.7667 22.9083 20.7668 23.4314 20.7668C23.4315 20.3733 23.4316 20.0072 23.4317 19.6145C23.9457 19.6145 24.4262 19.6146 24.9413 19.6146C24.9414 19.2223 24.9415 18.8566 24.9416 18.4599C25.4728 18.4575 25.9709 18.4552 26.4968 18.4527C26.4969 17.6685 26.4971 16.9108 26.4973 16.1414C27.0159 16.1414 27.505 16.1415 28.0105 16.1416C28.0098 19.6271 28.009 23.1022 28.0083 26.5747C27.7811 26.6178 5.4699 26.6246 5.16465 26.5842C5.10923 26.4335 5.08972 16.4991 5.14685 16.1433C5.64215 16.1433 6.14094 16.1434 6.68063 16.1435C6.70044 16.3877 6.68708 16.6407 6.68941 16.893C6.69176 17.1491 6.68982 17.4053 6.68977 17.6614C6.68971 17.9158 6.68966 18.1702 6.6896 18.4503C7.1997 18.4503 7.68083 18.4504 8.19408 18.4504C8.19399 18.842 8.19391 19.2086 8.19383 19.6037C8.72325 19.6058 9.22153 19.6077 9.74447 19.6097C9.74438 19.9998 9.74431 20.3604 9.74422 20.7466C10.2535 20.779 10.7444 20.7407 11.2627 20.772C11.2627 20.895 11.2626 20.9999 11.2627 21.1047C11.2628 21.3395 11.2659 21.5743 11.2618 21.809C11.2602 21.8989 11.3026 21.943 11.4513 21.9333Z" fill="#009C9D"/>
<path d="M24.9397 10.3224C23.9429 10.3223 22.946 10.3222 21.9111 10.3221C21.9112 9.93647 21.9113 9.56472 21.9114 9.18179C20.8891 9.18166 19.905 9.18154 18.892 9.18141C18.892 9.55376 18.8919 9.9201 18.8918 10.3153C18.3775 10.3152 17.8898 10.3152 17.374 10.3151C17.3739 10.7173 17.3738 11.0909 17.3737 11.4801C16.8455 11.48 16.3462 11.4799 15.8179 11.4799C15.7782 11.1055 15.8208 10.7311 15.7925 10.3455C15.5423 10.2983 15.292 10.3282 15.0453 10.3229C14.8051 10.3177 14.5645 10.3217 14.2963 10.3217C14.2964 9.93491 14.2965 9.56852 14.2965 9.20835C14.0639 9.16019 11.5936 9.15218 11.2681 9.19667C11.268 9.55885 11.2679 9.92538 11.2678 10.3182C10.2392 10.3181 9.23789 10.318 8.20814 10.3178C8.20797 11.1021 8.20781 11.8602 8.20764 12.6443C7.69842 12.6442 7.21716 12.6442 6.70528 12.6441C6.67267 13.4268 6.70619 14.1848 6.68445 14.9578C6.16729 14.9578 5.66139 14.9577 5.13911 14.9576C5.13961 12.6344 5.14012 10.3193 5.14062 7.98828C11.2439 7.98905 17.3395 7.98983 23.4656 7.9906C23.4655 8.36554 23.4655 8.73922 23.4654 9.13778C23.9794 9.16513 24.4697 9.13366 24.9859 9.159C24.9859 9.53557 24.9858 9.88941 24.9772 10.2698C24.9588 10.3048 24.9491 10.3135 24.9397 10.3224Z" fill="#009C9D"/>
<path d="M27.4566 9.17158C27.1323 9.17154 26.8354 9.1715 26.5053 9.17146C26.5054 8.78277 26.5055 8.4101 26.5056 8.01452C25.9793 7.97471 25.4783 8.01764 24.9665 7.98577C24.9666 7.59819 24.9667 7.22551 24.9668 6.83789C25.9774 6.83802 26.9797 6.83815 28.019 6.83828C28.0473 7.20564 28.0127 7.57905 28.039 7.96857C28.5484 7.96863 29.0392 7.96869 29.5216 7.96875C29.5899 8.13397 29.6068 10.0147 29.5476 10.3103C29.0522 10.3102 28.5535 10.3102 28.0189 10.3101C27.9943 9.94026 28.024 9.56699 28.0015 9.17165C27.8145 9.17162 27.6493 9.1716 27.4566 9.17158Z" fill="#009B9C"/>
<path d="M24.9414 10.3434C24.9474 10.3146 24.9571 10.3059 24.9747 10.291C25.3732 10.2907 25.7642 10.2971 26.1552 10.3025C26.2652 10.304 26.3753 10.3028 26.5142 10.3028C26.5141 10.7017 26.514 11.0756 26.5139 11.4705C27.0229 11.4706 27.5035 11.4706 27.976 11.4707C28.0378 11.6482 28.0493 14.7126 27.9938 14.9656C27.5076 14.9655 27.0186 14.9655 26.4968 14.9654C26.4969 14.1995 26.4971 13.4425 26.4973 12.6546C25.9686 12.6522 25.4705 12.6499 24.9442 12.6475C24.9444 11.868 24.9446 11.1157 24.9414 10.3434Z" fill="#009B9C"/>
<path d="M30.8008 5.64799C30.9079 5.65384 30.9892 5.65964 31.0796 5.6661C31.0795 6.05642 31.0794 6.43072 31.0794 6.82802C30.568 6.85696 30.0647 6.84809 29.5505 6.83442C29.5506 6.43456 29.5507 6.06022 29.5508 5.66102C29.9631 5.63438 30.3697 5.65386 30.8008 5.64799Z" fill="#00999A"/>
</g>
<defs>
<clipPath id="clip0_660_139">
<rect width="354" height="32" fill="white"/>
</clipPath>
</defs>
</svg>
